<?xml version="1.0" encoding="UTF-8"?>
<svg id="OBJECTS" xmlns="http://www.w3.org/2000/svg" viewBox="0 0 331.66 426.49">
  <defs>
    <style>
      .cls-1 {
        fill: none;
        stroke: #243a77;
        stroke-linecap: round;
        stroke-linejoin: round;
      }
    </style>
  </defs>
  <polyline class="cls-1" points="61.28 .5 331.16 .5 331.16 353.05"/>
  <polyline class="cls-1" points=".5 54.8 .5 425.99 260.65 425.99 260.65 357.1 305.23 357.1 305.23 333.59 235.53 333.59 235.53 401.67 27.24 401.67"/>
  <polyline class="cls-1" points="331.16 309.28 213.65 309.28 213.65 378.17 25.62 378.17 25.62 214.46 140.71 214.46 140.71 119.64 49.94 119.64"/>
  <polyline class="cls-1" points="305.23 285.99 188.87 285.99 96.59 285.99"/>
  <polyline class="cls-1" points="187.49 285.99 187.49 332.13 71.11 332.13 71.11 263.27 212.28 263.27 212.28 215.75"/>
  <polyline class="cls-1" points="189.55 353.05 47.7 353.05 47.7 240.39 166.14 240.39 166.14 95.24 71.11 95.24 71.11 119.64"/>
  <line class="cls-1" x1="71.11" y1="309.84" x2="164.24" y2="309.84"/>
  <line class="cls-1" x1="186.73" y1="240.39" x2="212.28" y2="240.39"/>
  <line class="cls-1" x1="235.36" y1="237.5" x2="235.36" y2="285.99"/>
  <line class="cls-1" x1="281.56" y1="237.5" x2="281.56" y2="285.99"/>
  <line class="cls-1" x1="259.07" y1="258.17" x2="259.07" y2="215.75"/>
  <polyline class="cls-1" points="305.23 258.17 305.23 191.91 212.28 191.91 212.28 142.67 305.23 142.67 305.23 95.24 212.28 95.24 212.28 49.06 164.24 49.06"/>
  <polyline class="cls-1" points="71.11 166.72 71.11 143.81 24.28 143.81 24.28 95.24 47.7 95.24 47.7 73.84 189.55 73.84 189.55 214.53 305.23 214.53"/>
  <line class="cls-1" x1="24.28" y1="73.84" x2=".5" y2="73.84"/>
  <line class="cls-1" x1="114.04" y1="166.72" x2=".5" y2="166.72"/>
  <line class="cls-1" x1="140.39" y1="191.24" x2="26.85" y2="191.24"/>
  <line class="cls-1" x1="140.39" y1="144.18" x2="97.43" y2="144.18"/>
  <line class="cls-1" x1="236.54" y1="166.72" x2="331.16" y2="166.72"/>
  <line class="cls-1" x1="189.55" y1="119.64" x2="278.85" y2="119.64"/>
  <polyline class="cls-1" points="331.16 73.84 236.54 73.84 236.54 49.06 305.23 49.06 305.23 25.46"/>
  <polyline class="cls-1" points="281.07 25.46 141.64 25.46 141.64 73.84"/>
  <polyline class="cls-1" points="91.65 25.46 70.54 25.46 70.54 49.06 118.63 49.06 118.63 .5"/>
</svg>